# MagicaVoxel @ Ephtracy

# group
o 

# material
mtllib ButterflyV2HalfLeft.mtl
usemtl palette

# normals
vn -1 0 0
vn 1 0 0
vn 0 0 1
vn 0 0 -1
vn 0 -1 0
vn 0 1 0

# texcoords
vt 0.244141 0.5
vt 0.248047 0.5
vt 0.994141 0.5

# verts
v -0.2 0.4 0.3
v -0.2 0.4 0.2
v -0.2 0.4 0.1
v -0.2 0.4 0
v -0.2 0.4 -0.1
v -0.2 0.4 -0.2
v -0.2 0.4 -0.3
v -0.2 0.4 -0.4
v -0.2 0.5 0.3
v -0.2 0.5 0.2
v -0.2 0.5 0.1
v -0.2 0.5 0
v -0.2 0.5 -0.1
v -0.2 0.5 -0.2
v -0.2 0.5 -0.3
v -0.2 0.5 -0.4
v -0.1 0.3 0
v -0.1 0.3 -0.1
v -0.1 0.4 0.1
v -0.1 0.4 0
v -0.1 0.4 -0.1
v -0.1 0.4 -0.2
v -0.1 0.5 0.1
v -0.1 0.5 0
v -0.1 0.5 -0.1
v -0.1 0.5 -0.2
v -0.1 0.4 0.3
v -0.1 0.4 0.2
v -0.1 0.4 -0.3
v -0.1 0.4 -0.4
v -0.1 0.5 0.3
v -0.1 0.5 0.2
v -0.1 0.5 -0.3
v -0.1 0.5 -0.4
v 0 0.4 0.2
v 0 0.4 0.1
v 0 0.4 -0.2
v 0 0.4 -0.3
v 0 0.5 0.2
v 0 0.5 0.1
v 0 0.5 -0.2
v 0 0.5 -0.3
v 0.1 0.3 0
v 0.1 0.3 -0.1
v 0.1 0.4 0.1
v 0.1 0.4 0
v 0.1 0.4 -0.1
v 0.1 0.4 -0.2
v 0.1 0.5 0.1
v 0.1 0.5 0
v 0.1 0.5 -0.1
v 0.1 0.5 -0.2
v -0.2 0.4 0.3
v -0.2 0.5 0.3
v -0.1 0.4 0.3
v -0.1 0.5 0.3
v -0.1 0.4 0.2
v -0.1 0.5 0.2
v 0 0.4 0.2
v 0 0.5 0.2
v 0 0.4 0.1
v 0 0.5 0.1
v 0.1 0.4 0.1
v 0.1 0.5 0.1
v -0.2 0.4 0
v -0.2 0.5 0
v -0.1 0.3 0
v -0.1 0.4 0
v -0.1 0.5 0
v 0.1 0.3 0
v 0.1 0.4 0
v -0.2 0.4 -0.2
v -0.2 0.5 -0.2
v -0.1 0.4 -0.2
v -0.1 0.5 -0.2
v -0.2 0.4 0.1
v -0.2 0.5 0.1
v -0.1 0.4 0.1
v -0.1 0.5 0.1
v -0.2 0.4 -0.1
v -0.2 0.5 -0.1
v -0.1 0.3 -0.1
v -0.1 0.4 -0.1
v -0.1 0.5 -0.1
v 0.1 0.3 -0.1
v 0.1 0.4 -0.1
v 0 0.4 -0.2
v 0 0.5 -0.2
v 0.1 0.4 -0.2
v 0.1 0.5 -0.2
v -0.1 0.4 -0.3
v -0.1 0.5 -0.3
v 0 0.4 -0.3
v 0 0.5 -0.3
v -0.2 0.4 -0.4
v -0.2 0.5 -0.4
v -0.1 0.4 -0.4
v -0.1 0.5 -0.4
v -0.1 0.3 0
v 0.1 0.3 0
v -0.1 0.3 -0.1
v 0.1 0.3 -0.1
v -0.2 0.4 0.3
v -0.1 0.4 0.3
v -0.2 0.4 0.2
v -0.1 0.4 0.2
v 0 0.4 0.2
v -0.2 0.4 0.1
v -0.1 0.4 0.1
v 0 0.4 0.1
v 0.1 0.4 0.1
v -0.2 0.4 0
v -0.1 0.4 0
v 0.1 0.4 0
v -0.2 0.4 -0.1
v -0.1 0.4 -0.1
v 0.1 0.4 -0.1
v -0.2 0.4 -0.2
v -0.1 0.4 -0.2
v 0 0.4 -0.2
v 0.1 0.4 -0.2
v -0.2 0.4 -0.3
v -0.1 0.4 -0.3
v 0 0.4 -0.3
v -0.2 0.4 -0.4
v -0.1 0.4 -0.4
v -0.2 0.5 0.3
v -0.1 0.5 0.3
v -0.2 0.5 0.2
v -0.1 0.5 0.2
v 0 0.5 0.2
v -0.2 0.5 0.1
v -0.1 0.5 0.1
v 0 0.5 0.1
v 0.1 0.5 0.1
v -0.2 0.5 0
v -0.1 0.5 0
v 0.1 0.5 0
v -0.2 0.5 -0.1
v -0.1 0.5 -0.1
v 0.1 0.5 -0.1
v -0.2 0.5 -0.2
v -0.1 0.5 -0.2
v 0 0.5 -0.2
v 0.1 0.5 -0.2
v -0.2 0.5 -0.3
v -0.1 0.5 -0.3
v 0 0.5 -0.3
v -0.2 0.5 -0.4
v -0.1 0.5 -0.4

# faces
f 9/1/1 2/1/1 1/1/1
f 10/2/1 3/2/1 2/2/1
f 10/1/1 2/1/1 9/1/1
f 11/2/1 3/2/1 10/2/1
f 12/3/1 5/3/1 4/3/1
f 13/3/1 5/3/1 12/3/1
f 14/2/1 7/2/1 6/2/1
f 15/1/1 8/1/1 7/1/1
f 15/2/1 7/2/1 14/2/1
f 16/1/1 8/1/1 15/1/1
f 20/3/1 18/3/1 17/3/1
f 21/3/1 18/3/1 20/3/1
f 23/2/1 20/2/1 19/2/1
f 24/2/1 20/2/1 23/2/1
f 25/2/1 22/2/1 21/2/1
f 26/2/1 22/2/1 25/2/1
f 27/1/2 28/1/2 31/1/2
f 31/1/2 28/1/2 32/1/2
f 29/1/2 30/1/2 33/1/2
f 33/1/2 30/1/2 34/1/2
f 35/2/2 36/2/2 39/2/2
f 39/2/2 36/2/2 40/2/2
f 37/2/2 38/2/2 41/2/2
f 41/2/2 38/2/2 42/2/2
f 43/3/2 44/3/2 46/3/2
f 46/3/2 44/3/2 47/3/2
f 45/2/2 46/2/2 49/2/2
f 46/3/2 47/3/2 50/3/2
f 49/2/2 46/2/2 50/2/2
f 47/2/2 48/2/2 51/2/2
f 50/3/2 47/3/2 51/3/2
f 51/2/2 48/2/2 52/2/2
f 55/1/3 54/1/3 53/1/3
f 56/1/3 54/1/3 55/1/3
f 59/2/3 58/2/3 57/2/3
f 60/2/3 58/2/3 59/2/3
f 63/2/3 62/2/3 61/2/3
f 64/2/3 62/2/3 63/2/3
f 68/3/3 66/3/3 65/3/3
f 69/3/3 66/3/3 68/3/3
f 70/3/3 68/3/3 67/3/3
f 71/3/3 68/3/3 70/3/3
f 74/2/3 73/2/3 72/2/3
f 75/2/3 73/2/3 74/2/3
f 76/2/4 77/2/4 78/2/4
f 78/2/4 77/2/4 79/2/4
f 80/3/4 81/3/4 83/3/4
f 83/3/4 81/3/4 84/3/4
f 82/3/4 83/3/4 85/3/4
f 85/3/4 83/3/4 86/3/4
f 87/2/4 88/2/4 89/2/4
f 89/2/4 88/2/4 90/2/4
f 91/2/4 92/2/4 93/2/4
f 93/2/4 92/2/4 94/2/4
f 95/1/4 96/1/4 97/1/4
f 97/1/4 96/1/4 98/1/4
f 101/3/5 100/3/5 99/3/5
f 102/3/5 100/3/5 101/3/5
f 105/1/5 104/1/5 103/1/5
f 106/1/5 104/1/5 105/1/5
f 108/2/5 106/2/5 105/2/5
f 108/2/5 107/2/5 106/2/5
f 109/2/5 107/2/5 108/2/5
f 110/2/5 107/2/5 109/2/5
f 113/2/5 111/2/5 110/2/5
f 113/2/5 110/2/5 109/2/5
f 114/2/5 111/2/5 113/2/5
f 115/3/5 113/3/5 112/3/5
f 116/3/5 113/3/5 115/3/5
f 119/2/5 117/2/5 116/2/5
f 120/2/5 117/2/5 119/2/5
f 121/2/5 117/2/5 120/2/5
f 122/2/5 119/2/5 118/2/5
f 122/2/5 120/2/5 119/2/5
f 123/2/5 120/2/5 122/2/5
f 124/2/5 120/2/5 123/2/5
f 125/1/5 123/1/5 122/1/5
f 126/1/5 123/1/5 125/1/5
f 127/1/6 128/1/6 129/1/6
f 129/1/6 128/1/6 130/1/6
f 129/2/6 130/2/6 132/2/6
f 130/2/6 131/2/6 132/2/6
f 132/2/6 131/2/6 133/2/6
f 133/2/6 131/2/6 134/2/6
f 134/2/6 135/2/6 137/2/6
f 133/2/6 134/2/6 137/2/6
f 137/2/6 135/2/6 138/2/6
f 136/3/6 137/3/6 139/3/6
f 137/3/6 138/3/6 139/3/6
f 139/3/6 138/3/6 140/3/6
f 140/3/6 138/3/6 141/3/6
f 140/2/6 141/2/6 143/2/6
f 143/2/6 141/2/6 144/2/6
f 144/2/6 141/2/6 145/2/6
f 142/2/6 143/2/6 146/2/6
f 143/2/6 144/2/6 146/2/6
f 146/2/6 144/2/6 147/2/6
f 147/2/6 144/2/6 148/2/6
f 146/1/6 147/1/6 149/1/6
f 149/1/6 147/1/6 150/1/6
